<svg xmlns="http://www.w3.org/2000/svg" width="120" height="40" viewBox="0 0 120 40" fill="none">
  <rect width="120" height="40" rx="8" fill="#3B82F6"/>
  <path d="M20 10L10 30H16L26 10H20Z" fill="white"/>
  <path d="M30 10L20 30H26L36 10H30Z" fill="white"/>
  <path d="M47.94 27V13.4H54.06C55.56 13.4 56.82 13.68 57.84 14.24C58.86 14.78 59.64 15.56 60.18 16.58C60.72 17.58 60.99 18.74 60.99 20.06C60.99 21.38 60.72 22.56 60.18 23.58C59.64 24.6 58.86 25.38 57.84 25.94C56.82 26.5 55.56 26.78 54.06 26.78H49.92V24.4H53.82C54.76 24.4 55.56 24.22 56.22 23.86C56.88 23.5 57.38 22.98 57.72 22.3C58.06 21.62 58.23 20.82 58.23 19.9C58.23 18.98 58.06 18.18 57.72 17.5C57.38 16.82 56.88 16.3 56.22 15.94C55.56 15.58 54.76 15.4 53.82 15.4H50.7V27H47.94Z" fill="white"/>
  <path d="M66.4549 27L73.4149 13.4H76.5349L83.4949 27H80.6149L74.9749 15.16H74.8949L69.2549 27H66.4549ZM69.7349 22.34L70.3949 20.34H77.4949L78.1549 22.34H69.7349Z" fill="white"/>
</svg> 